# xmcd
#
# Track frame offsets:
#	150
#	11154
#	25922
#	39050
#	55271
#	69935
#	83867
#	92006
#	108479
#	119879
#	133892
#	148680
#	158847
#	174272
#
# Disc length: 2543 seconds
# Revision: 0
# Processed by: cddbd v1.5.2PL0 Copyright (c) Steve Scherf et al.
# Submitted via: dBpowerAMP V12.0
#
DISCID=ba09ed0e
DTITLE=Heather Berry and Tony Mabe - The Heather Berry and Tony Mabe Show
DYEAR=2012
DGENRE=Couintry
TTITLE0=Arkansas
TTITLE1=Little Darling Pal of Mine
TTITLE2=I'll Live the Right Life Now
TTITLE3=Remembrance Is A Golden Chain
TTITLE4=Beulah Land 
TTITLE5=Walk Slow
TTITLE6=Big Train
TTITLE7=I Washed My Face In The Morning Dew
TTITLE8=I Have Decided To Follow Jesus
TTITLE9=Shenandoh Waltz
TTITLE10=I Miss You Old Friend
TTITLE11=Wonderful Time
TTITLE12=Tears and Roses 
TTITLE13=Turn Your Eyes Upon Jesus
EXTD=
EXTT0=
EXTT1=
EXTT2=
EXTT3=
EXTT4=
EXTT5=
EXTT6=
EXTT7=
EXTT8=
EXTT9=
EXTT10=
EXTT11=
EXTT12=
EXTT13=
PLAYORDER=
